<?xml version="1.0" standalone="no"?>
<!DOCTYPE svg PUBLIC "-//W3C//DTD SVG 20010904//EN"
 "http://www.w3.org/TR/2001/REC-SVG-20010904/DTD/svg10.dtd">
<svg version="1.0" xmlns="http://www.w3.org/2000/svg"
 width="984.000000pt" height="984.000000pt" viewBox="0 0 984.000000 984.000000"
 preserveAspectRatio="xMidYMid meet">
<metadata>
Created by potrace 1.14, written by Peter Selinger 2001-2017
</metadata>
<g transform="translate(0.000000,984.000000) scale(0.100000,-0.100000)"
fill="#000000" stroke="none">
<path d="M535 9791 c-65 -18 -184 -66 -195 -80 -3 -3 -17 -12 -31 -20 -29 -14
-140 -120 -176 -167 -12 -16 -39 -62 -59 -103 -34 -69 -42 -91 -62 -176 -9
-38 -9 -8598 0 -8645 19 -100 72 -220 126 -290 40 -51 144 -150 153 -145 4 3
9 -1 12 -9 9 -23 153 -87 252 -113 17 -4 1976 -9 4355 -10 4226 -2 4327 -1
4396 17 91 25 157 53 219 95 50 34 155 127 155 138 0 3 10 17 23 31 40 43 102
178 125 273 4 15 7 1970 7 4343 l0 4315 -28 80 c-51 143 -126 250 -239 340
-53 43 -148 91 -238 121 -53 18 -197 19 -4390 21 -4183 2 -4337 1 -4405 -16z
m650 -710 c17 0 46 2 65 3 19 1 50 -1 68 -5 17 -4 34 -4 36 0 2 3 66 5 143 3
136 -2 163 -2 233 2 19 1 50 -1 68 -5 17 -4 34 -4 36 0 4 5 121 6 211 1 17 0
54 0 83 2 30 2 56 0 58 -4 3 -5 10 -5 17 -1 10 6 88 8 162 4 17 -1 54 -1 83 1
30 2 56 0 59 -5 2 -4 10 -4 16 0 7 5 62 7 122 5 109 -2 137 -2 205 2 19 1 50
-1 68 -5 17 -4 34 -4 36 0 2 3 102 5 223 3 215 -2 244 -2 313 2 19 1 50 -1 68
-5 17 -4 34 -4 36 0 3 5 277 6 371 1 17 0 54 0 83 2 30 2 56 0 58 -4 3 -5 10
-5 17 -1 10 6 88 8 162 4 17 -1 54 -1 83 1 30 2 56 0 59 -5 2 -4 10 -4 16 0 7
5 26 7 42 5 30 -2 58 -2 125 2 19 1 50 -1 68 -5 17 -4 34 -4 36 0 2 3 66 5
143 3 136 -2 163 -2 233 2 19 1 50 -1 68 -5 17 -4 34 -4 36 0 2 3 66 5 143 3
136 -2 163 -2 233 2 19 1 50 -1 68 -5 17 -4 34 -4 36 0 4 5 121 6 211 1 17 0
54 0 83 2 30 2 56 0 58 -4 3 -5 10 -5 17 -1 10 6 88 8 162 4 17 -1 54 -1 83 1
30 2 56 0 59 -5 2 -4 10 -4 16 0 7 5 62 7 122 5 109 -2 137 -2 205 2 19 1 50
-1 68 -5 17 -4 34 -4 36 0 2 3 102 5 223 3 215 -2 244 -2 313 2 19 1 50 -1 68
-5 17 -4 34 -4 36 0 3 5 277 6 371 1 17 0 54 0 83 2 30 2 56 0 58 -4 3 -5 10
-5 17 -1 10 6 88 8 162 4 17 -1 54 -1 83 1 30 2 56 0 59 -5 2 -4 10 -4 16 0 7
5 26 7 42 5 30 -2 58 -2 125 2 19 1 50 -1 68 -5 17 -4 34 -4 36 0 2 3 66 5
143 3 76 -1 152 -2 168 -1 129 6 182 -9 220 -59 20 -27 20 -44 22 -2966 l1
-2940 -95 100 c-52 54 -161 169 -242 254 -82 85 -170 178 -197 207 -156 164
-330 346 -401 421 -46 47 -83 86 -83 87 0 1 -37 40 -82 87 -46 47 -144 149
-218 228 -389 411 -475 497 -518 519 -23 12 -42 19 -42 15 0 -4 -6 -2 -13 4
-19 16 -146 9 -187 -11 -50 -24 -117 -90 -135 -134 -17 -40 -39 -135 -49 -213
-3 -25 -8 -56 -11 -70 -20 -113 -38 -221 -41 -250 -3 -19 -7 -46 -10 -60 -7
-38 -16 -101 -17 -132 -1 -16 -5 -28 -8 -28 -3 0 -6 -6 -6 -12 0 -19 -13 -110
-18 -128 -2 -8 -6 -35 -9 -60 -3 -25 -8 -56 -11 -70 -3 -14 -8 -45 -11 -70 -3
-25 -8 -54 -11 -65 -6 -30 -10 -55 -18 -110 -10 -69 -13 -87 -18 -110 -3 -11
-8 -42 -11 -68 -4 -27 -10 -59 -12 -70 -3 -12 -6 -35 -8 -52 -4 -26 -16 -105
-30 -185 -3 -14 -7 -38 -10 -55 -2 -16 -7 -48 -11 -70 -3 -22 -8 -51 -11 -65
-6 -33 -17 -120 -18 -145 -1 -11 -4 -22 -8 -25 -3 -3 -7 -23 -9 -45 -1 -22 -5
-44 -7 -49 -5 -10 -10 -47 -13 -103 -1 -18 -5 -33 -8 -33 -4 0 -7 -18 -8 -40
-3 -58 -11 -64 -41 -28 -15 18 -30 35 -34 36 -5 2 -8 7 -8 11 0 5 -18 28 -39
52 -47 53 -201 235 -399 470 -105 125 -113 136 -129 153 -6 7 -41 48 -78 92
-36 43 -74 88 -83 99 -10 11 -38 44 -62 74 -25 30 -54 64 -65 75 -11 12 -36
41 -55 65 -19 25 -44 54 -55 65 -11 12 -38 44 -60 71 -22 27 -48 58 -58 68
-10 10 -34 39 -53 65 -20 26 -39 49 -43 52 -5 4 -74 85 -191 224 -14 17 -35
40 -47 53 -12 12 -27 31 -35 41 -12 18 -42 54 -143 172 -22 25 -58 68 -80 95
-22 27 -49 59 -60 71 -23 25 -39 44 -109 129 -27 33 -54 65 -60 70 -6 6 -27
30 -47 55 -20 25 -46 55 -57 68 -11 13 -35 41 -52 62 -17 21 -41 49 -52 62
-11 13 -37 43 -58 68 -21 25 -47 55 -57 66 -10 12 -34 41 -53 64 -19 24 -39
48 -45 54 -5 6 -35 41 -65 76 -77 91 -116 125 -169 144 -64 23 -117 25 -176 8
-56 -16 -85 -36 -164 -110 -92 -88 -379 -363 -474 -454 -50 -49 -91 -88 -92
-88 0 0 -42 -39 -92 -88 -93 -90 -222 -213 -503 -482 -90 -85 -196 -188 -238
-227 -41 -40 -140 -135 -219 -210 -80 -76 -190 -182 -246 -236 -55 -53 -101
-97 -102 -97 -1 0 -38 -35 -82 -77 -228 -221 -347 -333 -355 -333 -4 0 -8 -7
-8 -15 0 -8 -4 -15 -8 -15 -4 0 -59 -50 -122 -110 -63 -61 -143 -138 -177
-170 -35 -34 -63 -54 -65 -47 -2 6 -3 1409 -3 3117 1 2925 2 3107 19 3138 21
40 73 74 104 69 12 -3 24 -2 26 2 2 3 66 5 143 3 76 -1 152 -2 168 -1z"/>
<path d="M7149 8216 c-2 -2 -22 -5 -44 -7 -22 -1 -46 -7 -53 -12 -7 -6 -15 -7
-18 -4 -5 5 -118 -28 -174 -51 -14 -5 -27 -10 -30 -9 -3 0 -41 -22 -84 -49
-84 -50 -210 -151 -235 -187 -8 -11 -22 -28 -30 -37 -34 -35 -61 -71 -61 -79
0 -5 -6 -14 -14 -20 -33 -27 -143 -290 -128 -305 3 -3 1 -6 -4 -6 -5 0 -10 -8
-11 -17 -1 -10 -5 -43 -9 -73 -12 -84 -9 -257 6 -335 8 -38 14 -72 15 -75 0
-3 3 -9 6 -15 6 -10 22 -68 19 -73 0 -1 6 -15 13 -30 8 -15 27 -52 42 -82 16
-30 48 -83 72 -118 47 -67 176 -202 192 -202 5 0 11 -4 13 -9 4 -12 114 -84
156 -102 17 -8 32 -17 32 -21 0 -5 3 -7 8 -6 4 1 34 -8 67 -21 301 -115 656
-72 924 111 68 48 211 179 211 195 0 3 11 18 25 35 32 38 108 168 108 185 0 7
3 13 7 13 6 0 17 28 35 90 1 3 5 12 8 20 11 25 34 144 32 168 -1 12 1 22 5 22
7 0 4 197 -3 245 -15 89 -22 120 -45 185 -3 8 -6 17 -7 20 0 3 -11 27 -23 54
-12 27 -22 50 -22 52 0 6 -78 131 -97 156 -42 53 -182 186 -228 215 -27 18
-54 36 -60 40 -12 10 -146 75 -160 78 -5 1 -19 5 -30 9 -11 5 -27 10 -35 13
-8 4 -26 8 -40 10 -14 2 -32 6 -40 10 -8 3 -24 7 -35 9 -35 6 -271 14 -276 10z"/>
</g>
</svg>
